<svg id="Layer_1" data-name="Layer 1" xmlns="http://www.w3.org/2000/svg" viewBox="0 0 128.13 128.13"><defs><style>.cls-1{fill:#9bb1bc;}.cls-2{fill:#fefefe;}</style></defs><title>Email</title><path class="cls-1" d="M50.5,115c-20.17,0-40.33-.05-60.5.07-2.5,0-3.07-.57-3.06-3.07q.14-61,0-122c0-2.5.56-3.07,3.06-3.06q61,.14,122,0c2.5,0,3.07.56,3.06,3.06q-.14,61,0,122c0,2.5-.56,3.08-3.06,3.07C91.5,114.95,71,115,50.5,115ZM51,17C37,17,23,17.12,9,16.92c-3.85-.05-5.16,1-5.12,5,.19,19.63.16,39.27,0,58.91,0,3.73.82,5.26,5,5.24q42.18-.26,84.37,0c3.74,0,4.82-1.12,4.79-4.83-.16-19.8-.19-39.61,0-59.41,0-4.12-1.44-5-5.18-4.92C78.94,17.11,65,17,51,17Z" transform="translate(13.06 13.06)"/><path class="cls-2" d="M51,17c14,0,28,.11,41.93-.07,3.74,0,5.22.79,5.18,4.92-.21,19.8-.18,39.6,0,59.41,0,3.7-1.05,4.84-4.79,4.83q-42.18-.21-84.37,0c-4.14,0-5-1.51-5-5.24.14-19.64.17-39.27,0-58.91,0-4,1.27-5.07,5.12-5C23,17.12,37,17,51,17Zm0,60c11.15,0,22.31-.1,33.46.06,3.37,0,4.71-.86,4.64-4.46-.2-10.48,0-21-.11-31.46,0-1.23.69-3-.83-3.57-1.25-.48-2.25.74-3.29,1.62-9.47,8.07-19.05,16-28.53,24.06-3.6,3.05-7,3.09-10.56,0-9.48-8.05-19-16-28.47-24.11-1-.89-2.12-2.06-3.35-1.64-1.58.53-.89,2.3-.9,3.53-.06,10.49.09,21-.1,31.46-.06,3.5,1.09,4.6,4.56,4.54C28.65,76.88,39.81,77,51,77ZM86.24,25.22H15.66c9.53,9.09,19.89,16.2,29,24.74C46.85,52,50,55,54.88,51.7c4.42-3,7.74-6.92,11.8-10.12C73.19,36.45,80,31.69,86.24,25.22Z" transform="translate(13.06 13.06)"/><path class="cls-1" d="M51,77c-11.15,0-22.31-.11-33.46.07-3.47.06-4.63-1-4.56-4.54.19-10.49,0-21,.1-31.46,0-1.22-.68-3,.9-3.53,1.23-.41,2.31.76,3.35,1.64,9.45,8.08,19,16.06,28.47,24.11,3.58,3,7,3,10.56,0,9.48-8.06,19.07-16,28.53-24.06,1-.88,2-2.1,3.29-1.62,1.52.59.82,2.35.83,3.57.06,10.49-.09,21,.11,31.46.07,3.6-1.27,4.51-4.64,4.46C73.27,76.89,62.12,77,51,77Z" transform="translate(13.06 13.06)"/><path class="cls-1" d="M86.24,25.22C80,31.69,73.19,36.45,66.68,41.58c-4.06,3.2-7.38,7.13-11.8,10.12C50,55,46.85,52,44.69,50c-9.14-8.54-19.5-15.65-29-24.74Z" transform="translate(13.06 13.06)"/></svg>