<svg id="Layer_1" data-name="Layer 1" xmlns="http://www.w3.org/2000/svg" viewBox="0 0 128.13 128.13"><defs><style>.cls-1{fill:#d92a7a;}.cls-2{fill:#fdfbfc;}.cls-3{fill:#fdfafb;}.cls-4{fill:#fdf8fa;}</style></defs><title>Instagram</title><path class="cls-1" d="M51,115c-20.33,0-40.67-.05-61,.07-2.5,0-3.07-.57-3.06-3.07q.14-61,0-122c0-2.5.56-3.07,3.06-3.06q61,.14,122,0c2.5,0,3.07.56,3.06,3.06q-.14,61,0,122c0,2.5-.56,3.08-3.06,3.07C91.67,114.95,71.33,115,51,115ZM91,52.77c0-7.38,0-13.38,0-19.37-.1-11-7.85-19.73-18.79-21.44-12.74-2-25.59-1.36-38.3-.71C19.17,12,9.61,19.9,10,37.13c.21,10.32,0,20.65,0,31,0,10.67,7.39,20.26,17.81,21.75a157.61,157.61,0,0,0,45.6-.07c7.85-1.17,13.77-6,16.33-14.15S90.31,59.45,91,52.77Z" transform="translate(13.06 13.06)"/><path class="cls-2" d="M91,52.77c-.7,6.67,1.24,14.86-1.28,22.84s-8.48,13-16.33,14.15a157.61,157.61,0,0,1-45.6.07C17.39,88.36,10,78.77,10,68.1c0-10.32.16-20.65,0-31C9.61,19.9,19.17,12,33.91,11.26,46.62,10.6,59.47,10,72.21,12,83.15,13.67,90.9,22.36,91,33.4,91,39.4,91,45.39,91,52.77ZM18,51.2c0,5.49.36,11-.08,16.47-.71,8.83,6.88,15.14,15.21,15.28,11.81.19,23.63.12,35.45,0,7.52-.06,13.21-5.44,14.47-12.82,1.89-11.08,1-22.23.78-33.32S77.6,19.15,68.69,19c-12-.14-24-.26-35.94,0-8.17.2-15.46,6.5-14.82,15.14C18.35,39.85,18,45.54,18,51.2Z" transform="translate(13.06 13.06)"/><path class="cls-1" d="M18,51.2c0-5.66.34-11.34-.08-17-.64-8.64,6.64-14.94,14.82-15.14,12-.3,24-.18,35.94,0,8.91.1,14.89,6.56,15.14,17.79s1.12,22.24-.78,33.32C81.79,77.52,76.1,82.9,68.58,83c-11.81.1-23.63.17-35.45,0-8.34-.13-15.92-6.45-15.21-15.28C18.37,62.21,18,56.69,18,51.2Zm12-.14c-.66,12.39,9.27,20.64,20.46,20.5C62.86,71.39,71.12,64,71.87,50.94c.62-10.74-10.59-21.38-21.53-20.65C39,31,29.28,38.77,30,51.05Zm47-21c.08-3.62-2.16-4.86-5-5a4.35,4.35,0,0,0-4.64,4.58c0,2.73,1.64,5.32,4.81,5.22C75,34.79,77.24,33.33,77,30.07Z" transform="translate(13.06 13.06)"/><path class="cls-3" d="M30,51.05c-.71-12.29,9-20,20.36-20.77,10.94-.73,22.14,9.91,21.53,20.65-.75,13.06-9,20.45-21.43,20.61C39.26,71.7,29.33,63.44,30,51.05Zm34-.23c0-6.89-6.25-12.9-13.43-12.8-8,.11-13.59,6.61-13.34,13.13A13.39,13.39,0,0,0,64,50.83Z" transform="translate(13.06 13.06)"/><path class="cls-4" d="M77,30.07c.22,3.26-2,4.72-4.85,4.81-3.17.1-4.83-2.49-4.81-5.22A4.35,4.35,0,0,1,72,25.08C74.86,25.22,77.1,26.45,77,30.07Z" transform="translate(13.06 13.06)"/><path class="cls-1" d="M64,50.83a13.39,13.39,0,0,1-26.77.33c-.25-6.52,5.3-13,13.34-13.13C57.74,37.93,63.95,43.94,64,50.83Z" transform="translate(13.06 13.06)"/></svg>