<svg id="Layer_1" data-name="Layer 1" xmlns="http://www.w3.org/2000/svg" viewBox="0 0 600.19 600.19"><defs><style>.cls-1{fill:#7d63fe;}.cls-2{fill:#fefefe;}.cls-3{fill:#dbd7f1;}.cls-4{fill:#dad8e9;}.cls-5{fill:#e1ddf5;}</style></defs><title>Website2</title><path class="cls-1" d="M51,351q-148,0-296,.1c-3.42,0-4.1-.67-4.09-4.1q.16-296,0-592c0-3.42.67-4.1,4.09-4.09q296,.16,592,0c3.42,0,4.1.67,4.09,4.09q-.16,296,0,592c0,3.42-.67,4.1-4.09,4.1Q199,350.92,51,351ZM-133,82.32q0,57,0,114c0,10.33.26,20.43,3.64,30.56,2.49,7.46,7.37,12.9,11.33,19.16s10,9.25,16.19,12.4c7.87,4,15.91,6.68,25,6.66q86.48-.24,173,.05c4.87,0,9-2.22,13.73-2.73,1.83-.2,4.73-.63,6.73-1.92,7.47-4.85,15.67-9,20.63-16.72,2.54-3.94,6.05-7.73,7.36-11.89,2.53-8,5.28-16.32,4.37-25-.42-4.06,1.2-4.78,5-5,15.25-.75,30.73,2.63,45.75-3.61a48.21,48.21,0,0,0,12.84-7.44C217,187,220,181.6,224,177.37c7.7-8.27,10.48-18.69,10.62-28.41.83-56.31.43-112.63.28-169,0-4.18-1.1-8.71-4.38-11.62-6.21-5.5-11.74-11.67-17.76-17.29-10.48-9.78-20.35-20.19-30.45-30.32-9.53-9.55-19.15-19.1-28.68-28.67-10.09-10.13-20.05-20.45-30.4-30.36-6.86-6.57-13.55-13.43-20.4-20.08-2.38-2.31-5-4.79-8.71-4.65-32.58,1.21-65.24-2.43-97.78,1.85-7,.92-12.74,4-18.48,7.48-8.4,5.11-14,12.86-18.65,21.13A49,49,0,0,0-46.94-105c.26,3.85-.88,4.92-4.89,5.09-15.36.68-30.94-2.61-46,3.65-5.85,2.42-11.18,5.21-15.48,9.56a87.45,87.45,0,0,0-11,13.32,51.41,51.41,0,0,0-8.4,27.19C-133.23-3.33-133,39.5-133,82.32Z" transform="translate(249.09 249.09)"/><path class="cls-2" d="M-133,82.32c0-42.82-.27-85.65.2-128.47a51.41,51.41,0,0,1,8.4-27.19,87.45,87.45,0,0,1,11-13.32c4.3-4.34,9.63-7.13,15.48-9.56,15.11-6.26,30.69-3,46-3.65,4-.18,5.15-1.25,4.89-5.09a49,49,0,0,1,6.1-27.56c4.63-8.26,10.25-16,18.65-21.13,5.75-3.5,11.5-6.56,18.48-7.48,32.54-4.29,65.21-.64,97.78-1.85,3.7-.14,6.33,2.34,8.71,4.65,6.84,6.65,13.53,13.51,20.4,20.08,10.35,9.91,20.31,20.22,30.4,30.36,9.53,9.57,19.15,19.11,28.68,28.67,10.1,10.12,20,20.53,30.45,30.32,6,5.62,11.56,11.79,17.76,17.29,3.28,2.9,4.37,7.44,4.38,11.62.15,56.32.55,112.65-.28,169-.14,9.72-2.92,20.15-10.62,28.41C220,181.6,217,187,212.53,190.82a48.21,48.21,0,0,1-12.84,7.44c-15,6.24-30.5,2.86-45.75,3.61-3.79.19-5.41.91-5,5,.9,8.7-1.84,17-4.37,25-1.31,4.15-4.83,8-7.36,11.89-5,7.7-13.16,11.88-20.63,16.72-2,1.3-4.9,1.72-6.73,1.92-4.69.51-8.85,2.75-13.73,2.73q-86.48-.31-173-.05c-9.07,0-17.11-2.64-25-6.66-6.18-3.15-12.3-6.24-16.19-12.4s-8.84-11.7-11.33-19.16c-3.38-10.13-3.65-20.23-3.64-30.56Q-132.93,139.31-133,82.32ZM102,27.16c1-3.61-2.4-4.52-4.11-6.24q-35.37-35.59-70.95-71c-1.42-1.41-2.52-3.33-4.93-3.86,0,19.22,0,38.36,0,57.5a19.74,19.74,0,0,0,8,16c6.58,4.63,14.13,8.72,23,7.53a6.41,6.41,0,0,0,3.83.84H98.17A6.41,6.41,0,0,0,102,27.16Zm33-63,1.05.1h52.05a7,7,0,0,0-.55-1.35c-10.84-13-23.29-24.47-35.31-36.22C143.49-81.84,136-91.74,126-99.08c-6.16-4.54-9.32-12.22-16.26-16.13-1.2-.68-1.93-2.32-3.65-1.63-1.94.78-1.07,2.59-1.08,3.91-.07,15.16,0,30.32-.08,45.48-.07,7.93,3.08,14.49,7.52,20.78C118-38.81,125.38-35.08,135-35.83ZM-4.85,1c1-1.49.84-3.18.84-4.83Q-4-36-4-68.18c0-1.65.18-3.35-.83-4.83-.56-3.16-3.09-1.93-4.79-1.93-21-.08-42,0-63-.09-10.33-.06-19.33,2.19-26.27,10.83-4.19,5.21-7.05,10.62-7.06,17.17q-.12,121.73,0,243.47c0,8.1-.91,16.24,1.85,24.26,2,5.84,5.79,11.12,10.24,13.74,6.51,3.82,14.74,5.4,22.49,5.44,52.32.25,104.65.1,157,.17a57.88,57.88,0,0,0,21-3.95c9.32-3.55,15.38-13.48,15.41-22.68.15-50.49.05-101,0-151.48,0-2.63-.29-5.29,1.79-7.48C96.47,52.35,69.43,56.64,42.64,52c-7.07-1.23-14.24-2.23-19.91-7.37a12.37,12.37,0,0,0-4.78-3c-8.41-2.16-11.34-10.13-15.47-16C-2.4,18.73-3,9.42-4.85,1ZM208,73c0-25.32-.18-50.65.15-76,.07-5.29-1.61-6-6.4-6.2C176.84-10.08,151.83-6.65,127-11c-10.82-1.89-21.26-4.67-28.64-13.55-3-3.61-6.18-7.2-9.15-10.73a38.1,38.1,0,0,1-9-24c-.7-24.3-.35-48.64-.15-73,0-4.36-.83-6-5.63-5.88q-27.48.46-55,0A65.11,65.11,0,0,0-5.9-133.84a21.39,21.39,0,0,0-10.83,10.47A34.61,34.61,0,0,0-20.16-105c.31,3.69.82,5.29,5,5.07,6.81-.36,13.74.58,20.46-.28,7.23-.92,12.11,2.8,15.75,7.4,7.18,9.07,15.94,16.49,24,24.57,11,11,22.2,22,33.26,33,8.09,8,16.78,15.61,24.18,24.4,4.63,5.5,10.81,9.64,15.37,15,7.88,9.28,17.31,16.94,25.4,26,3.78,4.22,5.9,8.35,5.83,14-.2,16.49-.07,33-.07,49.48,0,26.16.09,52.31-.09,78.47,0,4,1.14,5.12,5,4.94,6.65-.3,13.33-.3,20,0,11,.45,20.58-2.33,27.52-11.32,3.56-4.61,6.51-9.72,6.53-15.79C208,124.28,208,98.63,208,73Z" transform="translate(249.09 249.09)"/><path class="cls-1" d="M-4.85,1C-3,9.42-2.4,18.73,2.48,25.62c4.13,5.82,7.06,13.79,15.47,16a12.37,12.37,0,0,1,4.78,3c5.67,5.14,12.84,6.14,19.91,7.37,26.78,4.65,53.83.37,81.14,2.47-2.07,2.19-1.79,4.86-1.79,7.48,0,50.49.12,101,0,151.48,0,9.2-6.09,19.12-15.41,22.68a57.88,57.88,0,0,1-21,3.95c-52.33-.06-104.65.09-157-.17-7.75,0-16-1.62-22.49-5.44-4.46-2.61-8.23-7.9-10.24-13.74-2.76-8-1.84-16.16-1.85-24.26q-.11-121.73,0-243.47c0-6.54,2.87-12,7.06-17.17C-91.94-72.84-82.95-75.09-72.62-75c21,.11,42,0,63,.09,1.7,0,4.23-1.23,4.79,1.93Q-4.84-36-4.85,1ZM16,90.1c0-7,0-14,0-21,0-1.77-.08-3.23-1.71-4.78C10.4,60.63,2,58.27-2.79,60.46c-1.54.7-3.32,2-3.91,3.43-1.24,3-2.45,6-2.36,9.63.33,12.15,0,24.33.19,36.49.06,3.74-.81,5.2-4.94,5.09-11.49-.3-23-.12-34.49-.09-3.35,0-6.55-.12-9.78,1.84-3.79,2.3-6.87,7.17-5.88,11.47,1.18,5.17,5.89,9.66,10.26,9.67,13.16,0,26.33.16,39.49-.08,4-.08,5.47.87,5.37,5.17-.29,12.66-.13,25.32-.1,38,0,6.16,6.82,13.51,12.74,13.88,4,.25,12.16-7.54,12.17-11.81,0-13,.23-26-.09-39-.12-5,1.85-6.27,6.38-6.21,12.66.17,25.33.07,38,.05,1.33,0,2.81.23,4-.26,4.7-2,8.18-10.57,6.73-16-.73-2.76-7.48-6.68-11.56-6.68-13.16,0-26.33-.09-39.49.06-3.08,0-4-.9-4-4C16.14,104.11,16,97.1,16,90.1Z" transform="translate(249.09 249.09)"/><path class="cls-1" d="M208,73c0,25.66,0,51.31,0,77,0,6.07-3,11.18-6.53,15.79-6.95,9-16.54,11.77-27.52,11.32-6.65-.27-13.34-.27-20,0-3.88.18-5.06-.94-5-4.94.18-26.15.09-52.31.09-78.47,0-16.49-.13-33,.07-49.48.07-5.69-2-9.83-5.83-14-8.09-9-17.52-16.68-25.4-26-4.57-5.38-10.74-9.52-15.37-15-7.4-8.79-16.1-16.36-24.18-24.4-11.06-11-22.23-22-33.26-33-8.08-8.08-16.84-15.5-24-24.57-3.64-4.59-8.53-8.32-15.75-7.4-6.72.86-13.65-.08-20.46.28-4.13.22-4.64-1.38-5-5.07a34.61,34.61,0,0,1,3.43-18.39A21.39,21.39,0,0,1-5.9-133.84a65.11,65.11,0,0,1,25.39-4.24q27.48.41,55,0c4.8-.08,5.66,1.52,5.63,5.88-.19,24.32-.55,48.66.15,73a38.1,38.1,0,0,0,9,24c3,3.54,6.16,7.13,9.15,10.73C105.76-15.65,116.2-12.87,127-11c24.82,4.33,49.82.89,74.72,1.78,4.79.17,6.47.91,6.4,6.2C207.82,22.32,208,47.65,208,73Z" transform="translate(249.09 249.09)"/><path class="cls-1" d="M135-35.83c-9.6.75-16.94-3-22.5-10.84C108-53,104.89-59.51,105-67.45c.13-15.16,0-30.32.08-45.48,0-1.32-.86-3.13,1.08-3.91,1.72-.69,2.45,1,3.65,1.63,6.94,3.91,10.1,11.59,16.26,16.13,10,7.34,17.45,17.24,26.19,25.78,12,11.75,24.47,23.25,35.31,36.22a7,7,0,0,1,.55,1.35H136Z" transform="translate(249.09 249.09)"/><path class="cls-1" d="M53,27.16c-8.86,1.19-16.41-2.9-23-7.53a19.74,19.74,0,0,1-8-16C22-15.55,22-34.7,22-53.91c2.41.52,3.51,2.44,4.93,3.86q35.54,35.42,70.95,71c1.72,1.73,5.1,2.63,4.11,6.24Z" transform="translate(249.09 249.09)"/><path class="cls-3" d="M-4.85,1q0-37,0-74c1,1.48.83,3.18.83,4.83Q-4-36-4-3.83C-4-2.17-3.87-.48-4.85,1Z" transform="translate(249.09 249.09)"/><path class="cls-4" d="M53,27.16h49a6.41,6.41,0,0,1-3.83.84H56.83A6.41,6.41,0,0,1,53,27.16Z" transform="translate(249.09 249.09)"/><path class="cls-5" d="M135-35.83l1.05.1Z" transform="translate(249.09 249.09)"/><path class="cls-2" d="M16,90.1c0,7,.14,14-.06,21-.09,3.07.87,4,4,4,13.16-.15,26.33-.07,39.49-.06,4.08,0,10.83,3.92,11.56,6.68,1.45,5.47-2,14-6.73,16-1.14.49-2.63.26-4,.26-12.66,0-25.33.12-38-.05-4.53-.06-6.51,1.2-6.38,6.21.32,13,.14,26,.09,39,0,4.27-8.15,12.07-12.17,11.81-5.92-.37-12.72-7.72-12.74-13.88,0-12.66-.19-25.33.1-38,.1-4.3-1.33-5.25-5.37-5.17-13.16.25-26.33.11-39.49.08-4.36,0-9.07-4.5-10.26-9.67-1-4.3,2.09-9.16,5.88-11.47,3.23-2,6.43-1.84,9.78-1.84,11.5,0,23-.21,34.49.09,4.12.11,5-1.36,4.94-5.09-.18-12.16.13-24.33-.19-36.49-.1-3.6,1.12-6.6,2.36-9.63.59-1.45,2.37-2.73,3.91-3.43,4.82-2.19,13.2.16,17.08,3.87,1.62,1.55,1.7,3,1.71,4.78C16,76.11,16,83.11,16,90.1Z" transform="translate(249.09 249.09)"/></svg>